<svg aria-hidden="true" style="position:absolute;width:0;height:0;overflow:hidden" xmlns="http://www.w3.org/2000/svg"><defs><symbol id="icon-telegram" viewBox="0 0 32 32"><path fill="#2ca5e0" style="fill:var(--color1, #2ca5e0)" d="m31.88 5.053-4.813 22.733c-.333 1.613-1.307 2-2.667 1.253l-7.333-5.427-3.547 3.427c-.4.4-.733.747-1.467.747-.96 0-.8-.36-1.12-1.267L8.4 18.266l-7.267-2.267c-1.573-.467-1.587-1.547.347-2.333L29.827 2.733c1.293-.573 2.533.32 2.053 2.32z"/></symbol><symbol id="icon-vk" viewBox="0 0 32 32"><path fill="#4680c2" style="fill:var(--color2, #4680c2)" d="M20.912 0h-9.824C2.123 0 0 2.123 0 11.088v9.824C0 29.877 2.123 32 11.088 32h9.824C29.877 32 32 29.877 32 20.912v-9.824C32 2.123 29.855 0 20.912 0zm4.923 22.831H23.51c-.88 0-1.152-.7-2.733-2.303-1.377-1.333-1.987-1.513-2.325-1.513-.475 0-.611.136-.611.791v2.1c0 .565-.18.904-1.671.904-2.461 0-5.195-1.491-7.113-4.269-2.891-4.064-3.683-7.113-3.683-7.745 0-.339.136-.655.791-.655H8.49c.587 0 .813.271 1.04.903 1.151 3.32 3.071 6.233 3.861 6.233.293 0 .429-.136.429-.88v-3.435c-.091-1.581-.927-1.716-.927-2.28 0-.272.227-.543.587-.543h3.659c.497 0 .677.271.677.857v4.631c0 .496.227.677.361.677.293 0 .543-.181 1.084-.723 1.672-1.875 2.868-4.765 2.868-4.765.159-.339.429-.655 1.017-.655h2.325c.7 0 .859.36.7.857-.293 1.356-3.139 5.375-3.139 5.375-.248.407-.339.587 0 1.04.248.339 1.061 1.039 1.604 1.671.993 1.129 1.76 2.077 1.964 2.733.227.653-.113.992-.767.993z"/></symbol><symbol id="icon-whatsapp" viewBox="0 0 32 32"><path fill="#25d366" style="fill:var(--color3, #25d366)" d="M23.331 19.176c-.401-.2-2.356-1.156-2.72-1.288-.364-.135-.631-.2-.897.2-.263.393-1.028 1.285-1.259 1.549-.233.26-.465.28-.861.1-.4-.2-1.684-.62-3.204-1.98-1.184-1.06-1.979-2.36-2.213-2.76-.232-.4-.025-.62.173-.82.181-.18.401-.46.601-.697.195-.241.259-.401.396-.661.133-.28.065-.5-.033-.699-.1-.2-.896-2.16-1.229-2.941-.32-.779-.649-.68-.896-.68-.229-.02-.495-.02-.761-.02s-.697.099-1.063.479c-.364.4-1.393 1.36-1.393 3.3s1.427 3.82 1.625 4.1c.199.26 2.807 4.26 6.8 5.98.952.4 1.693.64 2.272.839.952.303 1.82.26 2.507.161.765-.121 2.356-.961 2.688-1.901.34-.94.34-1.72.24-1.9-.099-.18-.36-.28-.76-.46zM16.081 29h-.021c-2.36 0-4.699-.64-6.74-1.84l-.48-.285-5 1.3 1.34-4.86-.319-.5a13.156 13.156 0 0 1-2.021-7.013c0-7.26 5.94-13.18 13.256-13.18 3.539 0 6.86 1.38 9.361 3.88 2.5 2.479 3.879 5.8 3.879 9.32-.005 7.259-5.947 13.18-13.247 13.18zM27.36 4.599C24.32 1.66 20.32 0 16.06 0 7.284 0 .139 7.112.135 15.857c0 2.795.732 5.52 2.127 7.927L.001 32l8.447-2.203a16.087 16.087 0 0 0 7.613 1.929h.008c8.78 0 15.928-7.115 15.932-15.861 0-4.235-1.653-8.22-4.66-11.215z"/></symbol><symbol id="icon-phone" viewBox="0 0 32 32"><path d="M22 20c-2 2-2 4-4 4s-4-2-6-4-4-4-4-6 2-2 4-4-4-8-6-8-6 6-6 6c0 4 4.109 12.109 8 16s12 8 16 8c0 0 6-4 6-6s-6-8-8-6z"/></symbol><symbol id="icon-tennis-ball" viewBox="0 0 32 32"><path d="M24.294 8.044C22.249 10.27 21 13.239 21 16.5s1.249 6.23 3.294 8.456C22.245 26.846 19.507 28 16.5 28s-5.745-1.154-7.794-3.044C10.751 22.73 12 19.761 12 16.5s-1.249-6.23-3.294-8.456C10.755 6.154 13.493 5 16.5 5s5.745 1.154 7.794 3.044zm.706.71c1.864 2.044 3 4.762 3 7.746s-1.136 5.702-3 7.746c-1.864-2.044-3-4.762-3-7.746s1.136-5.702 3-7.746zm-17 0c1.864 2.044 3 4.762 3 7.746s-1.136 5.702-3 7.746c-1.864-2.044-3-4.762-3-7.746s1.136-5.702 3-7.746zM16.5 29C23.404 29 29 23.404 29 16.5S23.404 4 16.5 4 4 9.596 4 16.5 9.596 29 16.5 29z"/></symbol><symbol id="children" viewBox="0 0 289.207 289.207" style="enable-background:new 0 0 289.207 289.207"><path d="M284.292 43.708c-5.091-3.419-11.99-2.064-15.411 3.028l-30.569 45.519a24.86 24.86 0 0 0-11.143-2.623h-16.658c-3.985 0-7.75.938-11.094 2.598l-30.551-45.493c-3.421-5.094-10.319-6.447-15.411-3.028-5.092 3.42-6.447 10.319-3.028 15.411l35.277 52.53c-.26 2.195-.148 148.04-.148 148.04 0 7.667 6.215 13.882 13.882 13.882s13.882-6.215 13.882-13.882v-62.471h11.106v62.471c0 7.667 6.215 13.882 13.882 13.882s13.882-6.215 13.882-13.882c0-53.649.068-145.573-.204-147.956L287.32 59.12c3.419-5.093 2.064-11.992-3.028-15.412z"/><path d="M218.873 81.873c14.696 0 26.615-11.908 26.615-26.614 0-9.339-4.824-17.553-12.113-22.301a27.785 27.785 0 0 1 4.998-2.631 2.513 2.513 0 0 0 .215-4.561c-4.209-2.186-9.338-2.231-14.178-1.303a27.646 27.646 0 0 1 3.183-4.702 2.515 2.515 0 0 0-1.96-4.125c-9.727.111-18.649 9.972-22.203 15.869a17.037 17.037 0 0 0-1.524 3.26c-5.893 4.882-9.648 12.251-9.648 20.493.001 14.707 11.92 26.615 26.615 26.615zm-83.121-38.165c-5.091-3.419-11.99-2.064-15.411 3.028l-7.24 10.782c-2.85-1.338-6.023-1.51-9.055.123-.186.1-.357.215-.534.323l.043-.122a4.164 4.164 0 0 0-2.548-5.31c-1.479-.521-3.04-.143-4.134.827-.976-13.8-12.483-24.706-26.539-24.706-14.057 0-25.564 10.906-26.54 24.706-1.096-.97-2.657-1.349-4.134-.827a4.164 4.164 0 0 0-2.548 5.31l.043.122c-.177-.109-.349-.224-.533-.323-3.031-1.633-6.206-1.461-9.056-.124l-7.24-10.781c-3.42-5.094-10.322-6.448-15.411-3.028-5.092 3.42-6.447 10.319-3.028 15.411l12.711 18.927c-.685 3.51-.701 7.087.48 10.327a2.515 2.515 0 0 0 4.55.379c.335-.591.681-1.144 1.032-1.678l16.504 24.575c-.25 2.119-.182.143-.182 35.685L21.864 208.97a9.635 9.635 0 0 0 9.361 11.934h5.791v38.784c0 7.667 6.215 13.882 13.882 13.882s13.882-6.215 13.882-13.882v-38.784h11.106v38.784c0 7.667 6.215 13.882 13.882 13.882s13.882-6.215 13.882-13.882v-38.784h5.726a9.635 9.635 0 0 0 9.361-11.934l-15.119-61.642h-.001c0-35.551.064-33.537-.171-35.595l16.561-24.661c.352.534.697 1.087 1.032 1.678a2.514 2.514 0 0 0 4.551-.379c1.181-3.24 1.164-6.817.479-10.327l12.711-18.927c3.419-5.09 2.064-11.989-3.028-15.409zM89.773 92.255a24.864 24.864 0 0 0-11.144-2.623H61.971c-3.985 0-7.75.938-11.093 2.597l-12.056-17.95c.951-.59 1.696-1.252 2.154-2.103.354-.658.633-1.336.839-2.025a4.164 4.164 0 0 0 3.044 1.34 4.138 4.138 0 0 0 3.254-1.584c4.763 7.21 12.936 11.967 22.221 11.967s17.458-4.757 22.22-11.967a4.136 4.136 0 0 0 3.255 1.584 4.168 4.168 0 0 0 3.044-1.34c.206.688.484 1.367.839 2.025.458.85 1.203 1.512 2.154 2.102L89.773 92.255z"/></symbol><symbol id="group" viewBox="0 0 124.915 124.915" style="enable-background:new 0 0 124.915 124.915" xml:space="preserve"><path d="m63.643 31.73-1.797 1.641-2.37-2.232a13.218 13.218 0 0 1-1.445-.323 36.167 36.167 0 0 0-3.352 1.761 4.255 4.255 0 0 0-.019-1.555c.536-.312 1.064-.6 1.581-.872a13.059 13.059 0 0 1-6.324-6.207 52.43 52.43 0 0 0-2.126 1.359 539.653 539.653 0 0 0-2.716-1.545 13.052 13.052 0 0 1-6.229 6.303c2.245 1.167 7.706 4.193 9.223 5.264.332.232.69.393 1.057.52v22.12c0 1.9.305 3.709.875 5.36a5.852 5.852 0 0 0-.027.533v4.967h.033c-.002.072-.021.14-.021.212l.002 43.685a5.392 5.392 0 1 0 10.783 0l-.001-43.685c0-.073-.019-.14-.021-.212h.81c-.002.072-.021.139-.021.211l-.003 43.686a5.392 5.392 0 0 0 5.391 5.393h.001a5.39 5.39 0 0 0 5.391-5.391l.003-43.686c0-.073-.019-.141-.021-.212h.062l.005-5.644s.953-1.279.953-5.911c0-2.487.253-11.765.253-11.765l.025-10.144c-.057-.028-7.717-4.226-7.717-4.226l-2.238.595z"/><path d="m35.746 31.466-2.37 1.817-1.797-1.642a821.315 821.315 0 0 0-8.71 4.05 5.052 5.052 0 0 1-2.172.488 5.08 5.08 0 0 1-2.359-.596l-.017.017c-4.541-3.644-8.328-9.951-9.655-12.667A4.562 4.562 0 0 0 .46 26.919c.804 1.657 8.181 16.282 19.31 19.766.641.201 1.285.349 1.929.469.073 2.804.207 8.216.207 10.031 0 4.631.954 5.909.954 5.909l.004 5.646h.083c-.002.073-.021.143-.021.217l.001 43.687a5.392 5.392 0 1 0 10.783-.002l-.001-43.685c0-.074-.019-.144-.022-.217h.812c-.003.073-.022.143-.022.217l-.003 43.685a5.392 5.392 0 1 0 10.783.002V68.957c0-.074-.019-.143-.021-.217h.013v-4.967a6.26 6.26 0 0 0-.026-.534c.57-1.651.875-3.461.875-5.36V35.343c-1.938.156-7.776-4.081-8.493-4.407-.473.137-1.369.449-1.859.53z"/><path d="M20.55 34.73c.607 0 1.225-.131 1.809-.409.06-.028 3.843-1.815 7.454-3.474a13.03 13.03 0 0 1-7.643-5.806 763.498 763.498 0 0 0-3.435 1.613 4.242 4.242 0 0 0-2.024 5.646 4.246 4.246 0 0 0 3.839 2.43z"/><circle cx="61.848" cy="18.55" r="11.751"/><circle cx="33.508" cy="18.55" r="11.751"/><path d="M93.65 30.79c3.648 1.675 7.518 3.503 7.579 3.531a4.238 4.238 0 0 0 5.646-2.022 4.24 4.24 0 0 0-2.021-5.646c-.159-.075-1.692-.8-3.706-1.739a13.03 13.03 0 0 1-7.498 5.876z"/><circle cx="90.188" cy="18.55" r="11.751"/><path d="M122.35 19.903a4.564 4.564 0 0 0-6.099 2.1c-1.461 2.991-5.896 10.324-11.039 13.674a5.063 5.063 0 0 1-2.347.59 5.068 5.068 0 0 1-2.173-.488 784.84 784.84 0 0 0-8.709-4.049l-1.797 1.641-2.37-2.232a13.149 13.149 0 0 1-1.444-.323 36.3 36.3 0 0 0-3.353 1.761A4.233 4.233 0 0 0 83 31.022a40.52 40.52 0 0 1 1.581-.872 13.05 13.05 0 0 1-6.324-6.207 52.43 52.43 0 0 0-2.126 1.359 539.653 539.653 0 0 0-2.716-1.545 13.056 13.056 0 0 1-6.229 6.303c2.244 1.167 7.706 4.193 9.223 5.264.332.232.689.393 1.056.52v22.12c0 1.9.306 3.709.876 5.36a5.852 5.852 0 0 0-.027.533v4.967h.033c-.002.072-.021.14-.021.212l.002 43.685a5.392 5.392 0 1 0 10.783 0l-.004-43.682c0-.073-.019-.141-.021-.212h.811c-.002.071-.021.139-.021.211l-.003 43.687a5.392 5.392 0 0 0 5.391 5.392h.001a5.39 5.39 0 0 0 5.392-5.39l.003-43.687c0-.073-.02-.14-.021-.212h.062l.004-5.645s.953-1.277.953-5.91c0-2.011.164-8.457.228-10.853a16.095 16.095 0 0 0 1.63-.249l.042.018c.005-.01.012-.019.019-.029a16.362 16.362 0 0 0 1.571-.399c11.128-3.484 18.505-18.108 19.31-19.766a4.564 4.564 0 0 0-2.108-6.092z"/></symbol><symbol id="individual" viewBox="0 0 459.431 459.431" style="enable-background:new 0 0 459.431 459.431" xml:space="preserve"><g id="XMLID_343_"><g id="XMLID_347_"><circle id="XMLID_350_" cx="280.121" cy="115.374" r="36.171"/><circle id="XMLID_349_" cx="338.535" cy="22.235" r="22.235"/></g><path id="XMLID_344_" d="m388.039 143.923 11.067-81.739c1.111-8.209-4.643-15.766-12.852-16.877-8.209-1.113-15.766 4.643-16.877 12.852l-10.059 74.289-49.299 27.387-58.241 14.989-59.223 25.756-35.261-19.983-23.364-53.955 2.314-23.679-.054.023c5.258-12.231 5.062-28.637-1.748-44.363C123.355 33.02 98.96 18.936 79.955 27.166c-19.005 8.23-25.424 35.657-14.337 61.261 6.81 15.726 18.641 27.093 31.159 31.627l-.054.023 18.853 14.513 17.035 39.338a14.913 14.913 0 0 0-6.644 6.157c-4.085 7.207-1.554 16.361 5.654 20.446l16.578 9.395 12.18 28.127c2.196 5.069 8.082 7.397 13.15 5.203 5.068-2.195 7.398-8.083 5.203-13.15l-1.65-3.811 7.194 4.077a14.987 14.987 0 0 0 13.377.705l48.718-21.188 22.102 105.008-11.015 56.823-33.005 57.787c-5.478 9.591-2.144 21.808 7.448 27.286 9.599 5.481 21.812 2.137 27.286-7.448l34.644-60.656a20.047 20.047 0 0 0 2.268-6.113l13.576-70.032 8.992-1.893 33.542 49.679-11.765 76.038c-1.69 10.916 5.791 21.134 16.707 22.823 10.893 1.689 21.131-5.776 22.822-16.706l12.964-83.788a20.001 20.001 0 0 0-3.189-14.25l-29.91-44.3-25.19-119.678 45.809-25.448a14.992 14.992 0 0 0 7.582-11.098zm-260.852-16.61-6.333 2.917-15.354-11.604s13.688 0 23.438-10l-1.751 18.687z"/></g></symbol><symbol id="prize" viewBox="0 0 232 232" style="enable-background:new 0 0 232 232" xml:space="preserve"><path d="M194.713 26H183V12.291C183 5.669 178.286 0 171.664 0H61.001C54.379 0 49 5.669 49 12.291V26H37.022C31.857 26 22 28.772 22 40.76v19.693c0 21.338 14.733 39.332 34.613 44.59 8.514 17.113 23.482 30.125 41.462 35.463-2.939 1.324-4.98 4.241-4.98 7.64 0 1.813.6 3.854 1.59 4.854h-.327c-4.518 0-8.213 4-8.472 8H74.939c-2.935 0-5.694 1.122-7.771 3.21a10.856 10.856 0 0 0-3.197 7.773L64.155 208h-5.072C52.594 208 47 213.261 47 219.75v.5c0 6.489 5.594 11.75 12.083 11.75h113.5c6.489 0 11.417-5.261 11.417-11.75v-.5c0-6.489-4.927-11.75-11.417-11.75h-4.073l.183-36.03c.015-2.935-1.12-5.673-3.197-7.761-2.076-2.087-4.836-3.209-7.771-3.209H146.78c-.259-4-3.954-8-8.472-8h-.327c.99-1 1.578-3.04 1.578-4.854 0-3.4-2.052-6.322-4.991-7.646 17.98-5.337 32.637-18.346 41.151-35.46C195.6 99.782 210 81.791 210 60.453V41.449C210 28.917 200.2 26 194.713 26zM40 64.796V44h9v28.233c0 6.394.735 12.588 2.247 18.485C44.334 84.193 40 74.986 40 64.796zm96.919 25.29L116.333 75.13 95.748 90.086l7.863-24.165L83.026 51h25.445l7.863-24.199L124.196 51h25.445l-20.585 14.921 7.863 24.165zM192 64.796c0 10.191-4.334 19.399-11.249 25.924C182.264 84.822 183 78.628 183 72.233V44h9v20.796z"/></symbol><symbol id="sport-watch" viewBox="0 0 394.233 394.233" style="enable-background:new 0 0 394.233 394.233" xml:space="preserve"><path d="M276.669 65.452c-3.342-1.369-6.185-3.835-7.616-7.152a17.531 17.531 0 0 1-1.437-6.95V6a6 6 0 0 0-6-6h-129a6 6 0 0 0-6 6v45.35c0 2.422-.5 4.78-1.437 6.95-1.431 3.316-4.273 5.782-7.615 7.151-22.238 9.111-37.948 30.977-37.948 56.456V272.43c0 25.256 15.436 46.962 37.364 56.214 5.406 2.281 9.266 7.363 9.606 13.221.02.337.029 46.366.029 46.366a6 6 0 0 0 6 6h129a6 6 0 0 0 6-6s.01-46.029.029-46.366c.34-5.858 4.2-10.94 9.606-13.221 21.928-9.252 37.364-30.958 37.364-56.214V121.908c.002-25.479-15.708-47.345-37.945-56.456zM255.616 37.22h-117v-7h117v7zm0-25.22v6.22h-117V12h117zm-117 39.35v-2.13h117v2.13c0 3.334.564 6.598 1.626 9.677a61.295 61.295 0 0 0-3.624-.117H140.615c-1.217 0-2.424.046-3.624.117a29.66 29.66 0 0 0 1.625-9.677zm0 305.77h117v7h-117v-7zm0 25.113v-6.113h117v6.113h-117zm117-39.35v2.237h-117v-2.237a29.67 29.67 0 0 0-1.584-9.567c1.186.069 118.994.068 120.187-.001a29.642 29.642 0 0 0-1.603 9.568zm47-70.451c0 27.018-21.98 48.998-48.998 48.998H140.615c-27.018 0-48.998-21.98-48.998-48.998V121.908c0-27.018 21.98-48.998 48.998-48.998h113.004c27.018 0 48.998 21.98 48.998 48.998v150.524z"/><path d="M252.44 79.539H141.794c-23.547 0-42.704 19.157-42.704 42.704v149.854c0 23.547 19.157 42.704 42.704 42.704H252.44c23.547 0 42.704-19.157 42.704-42.704V122.243c-.001-23.547-19.157-42.704-42.704-42.704zm30.703 192.558c0 16.93-13.773 30.704-30.704 30.704H141.794c-16.93 0-30.704-13.773-30.704-30.704V122.243c0-16.93 13.773-30.704 30.704-30.704H252.44c16.93 0 30.704 13.773 30.704 30.704v149.854z"/><path d="M223.009 138.757c-9.502 0-18.524 3.125-25.892 8.889-7.368-5.765-16.39-8.889-25.892-8.889-11.252 0-21.83 4.382-29.786 12.338S129.1 169.629 129.1 180.881s4.382 21.83 12.335 29.783l51.438 51.439c1.171 1.171 2.707 1.757 4.243 1.757s3.071-.586 4.243-1.757l51.09-51.09.346-.346c7.956-7.956 12.338-18.534 12.338-29.786s-4.382-21.83-12.338-29.786-18.535-12.338-29.786-12.338zm21.298 63.428-47.19 47.19-47.193-47.193c-5.69-5.689-8.823-13.254-8.823-21.301s3.133-15.611 8.823-21.301c5.689-5.69 13.254-8.823 21.301-8.823s15.611 3.133 21.301 8.823l.349.349a6 6 0 0 0 8.485 0l.349-.349c5.69-5.69 13.254-8.823 21.301-8.823 8.047 0 15.612 3.133 21.301 8.823 5.69 5.689 8.823 13.254 8.823 21.301s-3.134 15.612-8.827 21.304z"/></symbol><symbol viewBox="0 0 436.64 436.64" id="bus" style="enable-background:new 0 0 436.64 436.64" xml:space="preserve"><path d="M76.906 274.143c-13.806 0-25.039 11.232-25.039 25.039s11.232 25.039 25.039 25.039c13.807 0 25.04-11.232 25.04-25.039s-11.234-25.039-25.04-25.039zm0 35.078c-5.535 0-10.039-4.503-10.039-10.039s4.503-10.039 10.039-10.039 10.04 4.503 10.04 10.039-4.505 10.039-10.04 10.039zm260.453-35.078c-13.807 0-25.04 11.232-25.04 25.039s11.233 25.039 25.04 25.039c13.806 0 25.039-11.232 25.039-25.039s-11.232-25.039-25.039-25.039zm0 35.078c-5.536 0-10.04-4.503-10.04-10.039s4.504-10.039 10.04-10.039c5.535 0 10.039 4.503 10.039 10.039s-4.503 10.039-10.039 10.039z"/><path d="M399.72 87.203H36.93C16.567 87.203 0 103.765 0 124.123v177.84a7.5 7.5 0 0 0 7.5 7.5h20.212c4.758 22.796 25.007 39.974 49.195 39.974s44.436-17.178 49.194-39.974h162.064c4.758 22.796 25.006 39.974 49.194 39.974s44.436-17.178 49.194-39.974h42.587a7.5 7.5 0 0 0 7.5-7.5v-177.84c0-20.358-16.562-36.92-36.92-36.92zm21.92 132.77H381.1c-4.665 0-8.46-3.795-8.46-8.46v-71.43c0-4.665 3.795-8.46 8.46-8.46h40.54v88.35zM15 286.573h13.254a50.06 50.06 0 0 0-1.375 7.89H15v-7.89zm61.906 47.864c-19.44 0-35.256-15.815-35.256-35.255s15.816-35.255 35.256-35.255 35.255 15.815 35.255 35.255-15.815 35.255-35.255 35.255zm260.453 0c-19.44 0-35.255-15.815-35.255-35.255s15.815-35.255 35.255-35.255 35.255 15.815 35.255 35.255-15.815 35.255-35.255 35.255zm0-85.51c-17.519 0-32.964 9.016-41.962 22.646H154.64a7.5 7.5 0 0 0 0 15h134.067a50.06 50.06 0 0 0-1.375 7.89H126.933c-2.387-25.506-23.908-45.537-50.027-45.537-17.519 0-32.965 9.016-41.963 22.646H15v-147.45c0-12.087 9.838-21.92 21.93-21.92h362.79c9.453 0 17.528 6.016 20.598 14.42H381.1c-12.936 0-23.46 10.524-23.46 23.46v71.43c0 12.936 10.524 23.46 23.46 23.46h40.54v9h-12.5a7.5 7.5 0 0 0 0 15h12.5v12.6h-42.319c-8.998-13.629-24.443-22.645-41.962-22.645zm50.027 45.536a49.945 49.945 0 0 0-1.375-7.89h35.629v7.89h-34.254z"/><path d="M325.18 116.623H55.51c-12.936 0-23.46 10.524-23.46 23.46v71.43c0 12.936 10.524 23.46 23.46 23.46h269.67c12.936 0 23.46-10.524 23.46-23.46v-71.43c0-12.936-10.524-23.46-23.46-23.46zm-89.54 15v88.35h-87v-88.35h87zm-188.59 79.89v-71.43c0-4.665 3.795-8.46 8.46-8.46h78.13v88.35H55.51c-4.665 0-8.46-3.795-8.46-8.46zm286.59 0c0 4.665-3.795 8.46-8.46 8.46h-74.54v-88.35h74.54c4.665 0 8.46 3.795 8.46 8.46v71.43zm-193.737 61.326c-2.812-1.854-6.617-1.619-9.146.627-2.28 2.024-3.098 5.329-2.051 8.187 1.117 3.049 4.156 5.066 7.404 4.907 3.146-.154 5.915-2.335 6.817-5.347.929-3.102-.313-6.589-3.024-8.374-.41-.27.41.27 0 0z"/></symbol><symbol viewBox="0 0 24 24" id="menu" fill="none"><path fill-rule="evenodd" clip-rule="evenodd" d="M2 5h20v2H2V5Zm0 6h20v2H2v-2Zm20 6H2v2h20v-2Z" fill="currentColor"/></symbol><symbol id="close" viewBox="0 0 32 32"><path d="M31.708 25.708 22 16l9.708-9.708a1 1 0 0 0 0-1.414L27.122.292a1 1 0 0 0-1.414-.001L16 9.999 6.292.291a.998.998 0 0 0-1.414.001L.292 4.878a1 1 0 0 0 0 1.414L10 16 .292 25.708a.999.999 0 0 0 0 1.414l4.586 4.586a1 1 0 0 0 1.414 0L16 22l9.708 9.708a1 1 0 0 0 1.414 0l4.586-4.586a.999.999 0 0 0 0-1.414z"/></symbol></defs></svg>